<svg xmlns="http://www.w3.org/2000/svg" width="18" height="18" viewBox="0 0 18 18"><g transform="translate(1 1)"><circle cx="2" cy="2" r="2" transform="translate(1 6)" fill="none" stroke="#fff" stroke-linecap="round" stroke-linejoin="round" stroke-width="2"/><path d="M137,18V17a2,2,0,0,1,2-2h2a2,2,0,0,1,2,2v1" transform="translate(-137 -2)" fill="none" stroke="#fff" stroke-linecap="round" stroke-linejoin="round" stroke-width="2"/><path d="M142,5V4a2,2,0,0,1,2-2h7a2,2,0,0,1,2,2V9a2,2,0,0,1-2,2h-3l-3,3V11" transform="translate(-137 -2)" fill="none" stroke="#fff" stroke-linecap="round" stroke-linejoin="round" stroke-width="2"/><line x2="5" transform="translate(8 3)" fill="none" stroke="#fff" stroke-linecap="round" stroke-linejoin="round" stroke-width="2"/><line x2="5" transform="translate(8 6)" fill="none" stroke="#fff" stroke-linecap="round" stroke-linejoin="round" stroke-width="2"/></g></svg>