<svg xmlns="http://www.w3.org/2000/svg" width="76" height="27" viewBox="0 0 76 27"><g transform="translate(-442.385 -266.038)"><path d="M474.385,271.038h-32v17h37v-22Z" fill="#fff" style="isolation:isolate"/><path d="M481.385,271.038v22l5-5h32v-17Z" fill="#1040ba"/><path d="M451.882,282.617a1.278,1.278,0,0,0-.5-1.083,6.539,6.539,0,0,0-1.793-.8,12.623,12.623,0,0,1-2.05-.826,3.346,3.346,0,0,1-2.058-3,2.923,2.923,0,0,1,.55-1.748,3.613,3.613,0,0,1,1.585-1.2,5.983,5.983,0,0,1,2.32-.431,5.442,5.442,0,0,1,2.308.469,3.677,3.677,0,0,1,1.573,1.324,3.458,3.458,0,0,1,.56,1.942h-2.49a1.63,1.63,0,0,0-.523-1.291,2.152,2.152,0,0,0-1.469-.46,2.293,2.293,0,0,0-1.42.386,1.219,1.219,0,0,0-.506,1.017,1.162,1.162,0,0,0,.594.987,6.666,6.666,0,0,0,1.747.747,7.567,7.567,0,0,1,3.1,1.586,3.156,3.156,0,0,1,.971,2.357,2.906,2.906,0,0,1-1.187,2.461,5.191,5.191,0,0,1-3.2.893,6.149,6.149,0,0,1-2.541-.511,4.012,4.012,0,0,1-1.747-1.4,3.583,3.583,0,0,1-.6-2.059h2.5q0,2,2.391,2a2.322,2.322,0,0,0,1.386-.36A1.177,1.177,0,0,0,451.882,282.617Z" fill="rgba(0,0,0,0.87)"/><path d="M465.654,280.019a7.314,7.314,0,0,1-.631,3.13,4.754,4.754,0,0,1-1.806,2.075,5.333,5.333,0,0,1-5.374.008,4.791,4.791,0,0,1-1.827-2.063,7.083,7.083,0,0,1-.655-3.083v-.6a7.255,7.255,0,0,1,.643-3.142,4.789,4.789,0,0,1,1.818-2.083,5.323,5.323,0,0,1,5.37,0,4.789,4.789,0,0,1,1.818,2.083,7.264,7.264,0,0,1,.644,3.134Zm-2.524-.55a5.088,5.088,0,0,0-.681-2.888,2.4,2.4,0,0,0-3.876-.013,5.02,5.02,0,0,0-.688,2.862v.589a5.142,5.142,0,0,0,.68,2.872,2.386,2.386,0,0,0,3.885.038,5.124,5.124,0,0,0,.681-2.868Z" fill="rgba(0,0,0,0.87)"/><path d="M476.271,273.7v7.961a4.075,4.075,0,0,1-1.241,3.137,4.782,4.782,0,0,1-3.391,1.154,4.836,4.836,0,0,1-3.362-1.12,4.005,4.005,0,0,1-1.27-3.08V273.7h2.49v7.977a2.3,2.3,0,0,0,.569,1.731,2.18,2.18,0,0,0,1.573.544q2.1,0,2.133-2.208V273.7Z" fill="rgba(0,0,0,0.87)"/><path d="M484.059,285.788V273.7h3.719a5.66,5.66,0,0,1,2.85.718,5.019,5.019,0,0,1,1.963,2.042,6.308,6.308,0,0,1,.7,3.009v.557a6.309,6.309,0,0,1-.693,3,4.955,4.955,0,0,1-1.955,2.034,5.673,5.673,0,0,1-2.847.73Zm2.49-10.069v8.069h1.2a2.7,2.7,0,0,0,2.233-.954,4.32,4.32,0,0,0,.788-2.731v-.64a4.383,4.383,0,0,0-.763-2.793,2.7,2.7,0,0,0-2.233-.95Z" fill="#fff"/><path d="M501.591,283.3h-4.366l-.83,2.49h-2.65l4.5-12.086h2.307l4.524,12.086h-2.65Zm-3.694-2.017h3.021l-1.519-4.524Z" fill="#fff"/><path d="M515.694,285.788H513.2l-4.85-7.95v7.95h-2.49V273.7h2.49l4.856,7.969V273.7h2.482Z" fill="#fff"/></g></svg>