<svg xmlns="http://www.w3.org/2000/svg" width="152" height="54" viewBox="0 0 152 54">
  <g id="グループ_1742" data-name="グループ 1742" transform="translate(-404 -253)">
    <path id="パス_2923" data-name="パス 2923" d="M468,263H404v34h74V253Z" opacity="0.87"/>
    <path id="パス_2924" data-name="パス 2924" d="M482,263v44l10-10h64V263Z" fill="#1040ba"/>
    <g id="グループ_1740" data-name="グループ 1740">
      <path id="パス_2925" data-name="パス 2925" d="M422.995,286.158a2.555,2.555,0,0,0-1-2.166,13.046,13.046,0,0,0-3.586-1.594,25.388,25.388,0,0,1-4.1-1.652q-4.118-2.225-4.117-5.993a5.839,5.839,0,0,1,1.1-3.495,7.21,7.21,0,0,1,3.171-2.4,11.945,11.945,0,0,1,4.64-.863,10.873,10.873,0,0,1,4.616.938,7.355,7.355,0,0,1,3.146,2.648,6.93,6.93,0,0,1,1.12,3.885h-4.98a3.262,3.262,0,0,0-1.046-2.582,4.3,4.3,0,0,0-2.939-.921,4.592,4.592,0,0,0-2.839.772,2.435,2.435,0,0,0-1.012,2.034,2.329,2.329,0,0,0,1.187,1.975,13.421,13.421,0,0,0,3.494,1.494,15.111,15.111,0,0,1,6.193,3.171,6.314,6.314,0,0,1,1.942,4.715,5.816,5.816,0,0,1-2.374,4.922,10.391,10.391,0,0,1-6.391,1.785,12.342,12.342,0,0,1-5.081-1.021,8.033,8.033,0,0,1-3.494-2.8,7.163,7.163,0,0,1-1.2-4.118h5q0,4,4.782,4a4.66,4.66,0,0,0,2.772-.721A2.353,2.353,0,0,0,422.995,286.158Z" fill="#fff"/>
      <path id="パス_2926" data-name="パス 2926" d="M450.538,280.962a14.594,14.594,0,0,1-1.262,6.259,9.5,9.5,0,0,1-3.611,4.15,10.67,10.67,0,0,1-10.749.017,9.591,9.591,0,0,1-3.653-4.126,14.16,14.16,0,0,1-1.311-6.167v-1.2a14.508,14.508,0,0,1,1.286-6.283,9.578,9.578,0,0,1,3.636-4.167,10.652,10.652,0,0,1,10.741,0,9.577,9.577,0,0,1,3.636,4.167,14.484,14.484,0,0,1,1.287,6.267Zm-5.047-1.1a10.168,10.168,0,0,0-1.362-5.777,4.808,4.808,0,0,0-7.753-.025A10.053,10.053,0,0,0,435,279.783v1.179a10.3,10.3,0,0,0,1.361,5.744,4.767,4.767,0,0,0,7.769.075,10.243,10.243,0,0,0,1.362-5.736Z" fill="#fff"/>
      <path id="パス_2927" data-name="パス 2927" d="M471.772,268.328v15.921a8.151,8.151,0,0,1-2.482,6.275,9.567,9.567,0,0,1-6.782,2.308,9.675,9.675,0,0,1-6.723-2.241,8.011,8.011,0,0,1-2.54-6.159v-16.1h4.98v15.954a4.607,4.607,0,0,0,1.137,3.462,4.365,4.365,0,0,0,3.146,1.087q4.2,0,4.267-4.416V268.328Z" fill="#fff"/>
    </g>
    <g id="グループ_1741" data-name="グループ 1741">
      <path id="パス_2928" data-name="パス 2928" d="M487.349,292.5V268.328h7.437a11.3,11.3,0,0,1,5.7,1.436,10.019,10.019,0,0,1,3.926,4.084,12.609,12.609,0,0,1,1.411,6.018v1.113a12.633,12.633,0,0,1-1.386,5.993,9.921,9.921,0,0,1-3.91,4.067,11.376,11.376,0,0,1-5.694,1.461Zm4.98-20.138V288.5h2.407a5.409,5.409,0,0,0,4.466-1.909,8.63,8.63,0,0,0,1.577-5.462V279.85a8.763,8.763,0,0,0-1.527-5.587,5.392,5.392,0,0,0-4.466-1.9Z" fill="#fff"/>
      <path id="パス_2929" data-name="パス 2929" d="M522.412,287.52H513.68l-1.66,4.98h-5.3l9-24.172h4.615l9.048,24.172h-5.3Zm-7.388-4.035h6.043l-3.038-9.047Z" fill="#fff"/>
      <path id="パス_2930" data-name="パス 2930" d="M550.618,292.5h-4.98l-9.7-15.9v15.9h-4.98V268.328h4.98l9.712,15.938V268.328h4.964Z" fill="#fff"/>
    </g>
  </g>
</svg>
